<?xml version="1.0" standalone="no"?>
<svg xmlns:xlink="http://www.w3.org/1999/xlink" id="wave" style="transform:rotate(0deg); transition: 0.3s" viewBox="0 0 1440 190" version="1.1" xmlns="http://www.w3.org/2000/svg"><defs><linearGradient id="sw-gradient-0" x1="0" x2="0" y1="1" y2="0"><stop stop-color="rgba(39.026, 39.026, 39.026, 1)" offset="0%"/><stop stop-color="rgba(225.722, 225.722, 225.722, 1)" offset="100%"/></linearGradient></defs><path style="transform:translate(0, 0px); opacity:1" fill="url(#sw-gradient-0)" d="M0,57L48,57C96,57,192,57,288,60.2C384,63,480,70,576,88.7C672,108,768,139,864,129.8C960,120,1056,70,1152,69.7C1248,70,1344,120,1440,126.7C1536,133,1632,95,1728,72.8C1824,51,1920,44,2016,41.2C2112,38,2208,38,2304,57C2400,76,2496,114,2592,136.2C2688,158,2784,165,2880,152C2976,139,3072,108,3168,79.2C3264,51,3360,25,3456,28.5C3552,32,3648,63,3744,66.5C3840,70,3936,44,4032,41.2C4128,38,4224,57,4320,72.8C4416,89,4512,101,4608,114C4704,127,4800,139,4896,126.7C4992,114,5088,76,5184,66.5C5280,57,5376,76,5472,85.5C5568,95,5664,95,5760,91.8C5856,89,5952,82,6048,72.8C6144,63,6240,51,6336,66.5C6432,82,6528,127,6624,145.7C6720,165,6816,158,6864,155.2L6912,152L6912,190L6864,190C6816,190,6720,190,6624,190C6528,190,6432,190,6336,190C6240,190,6144,190,6048,190C5952,190,5856,190,5760,190C5664,190,5568,190,5472,190C5376,190,5280,190,5184,190C5088,190,4992,190,4896,190C4800,190,4704,190,4608,190C4512,190,4416,190,4320,190C4224,190,4128,190,4032,190C3936,190,3840,190,3744,190C3648,190,3552,190,3456,190C3360,190,3264,190,3168,190C3072,190,2976,190,2880,190C2784,190,2688,190,2592,190C2496,190,2400,190,2304,190C2208,190,2112,190,2016,190C1920,190,1824,190,1728,190C1632,190,1536,190,1440,190C1344,190,1248,190,1152,190C1056,190,960,190,864,190C768,190,672,190,576,190C480,190,384,190,288,190C192,190,96,190,48,190L0,190Z"/></svg>